<mxfile host="app.diagrams.net" modified="2020-07-10T12:14:40.783Z" agent="5.0 (Windows NT 10.0; Win64; x64) AppleWebKit/537.36 (KHTML, like Gecko) Chrome/83.0.4103.116 Safari/537.36" etag="C-QEehu8XpgBF6bU2WoQ" version="13.3.9" type="github">
  <diagram id="UGUxTFOxC3-vPUQ_dhhy" name="Page-1">
    <mxGraphModel dx="2377" dy="836" grid="1" gridSize="10" guides="1" tooltips="1" connect="1" arrows="1" fold="1" page="1" pageScale="1" pageWidth="827" pageHeight="1169" math="0" shadow="0" extFonts="Noto Sans^https://fonts.googleapis.com/css?family=Noto+Sans|Noto Sans CJK^https://fonts.googleapis.com/css?family=Noto+Sans+CJK|Noto Sans TC^https://fonts.googleapis.com/css?family=Noto+Sans+TC">
      <root>
        <mxCell id="0" />
        <mxCell id="1" parent="0" />
        <mxCell id="enKZw2bad4Le0Jf5cK5T-2" value="webroot&lt;br&gt;中佑" style="ellipse;whiteSpace=wrap;html=1;aspect=fixed;" vertex="1" parent="1">
          <mxGeometry x="-230" y="300" width="80" height="80" as="geometry" />
        </mxCell>
        <mxCell id="enKZw2bad4Le0Jf5cK5T-3" value="webroot&lt;br&gt;富邦" style="ellipse;whiteSpace=wrap;html=1;aspect=fixed;" vertex="1" parent="1">
          <mxGeometry x="-20" y="300" width="80" height="80" as="geometry" />
        </mxCell>
        <mxCell id="enKZw2bad4Le0Jf5cK5T-23" style="edgeStyle=orthogonalEdgeStyle;rounded=0;orthogonalLoop=1;jettySize=auto;html=1;" edge="1" parent="1" source="enKZw2bad4Le0Jf5cK5T-6">
          <mxGeometry relative="1" as="geometry">
            <mxPoint x="-190" y="300" as="targetPoint" />
            <Array as="points">
              <mxPoint x="-240" y="250" />
              <mxPoint x="-190" y="250" />
            </Array>
          </mxGeometry>
        </mxCell>
        <mxCell id="enKZw2bad4Le0Jf5cK5T-6" value="finedb" style="shape=cylinder;whiteSpace=wrap;html=1;boundedLbl=1;backgroundOutline=1;" vertex="1" parent="1">
          <mxGeometry x="-280" y="120" width="60" height="80" as="geometry" />
        </mxCell>
        <mxCell id="enKZw2bad4Le0Jf5cK5T-13" style="edgeStyle=orthogonalEdgeStyle;rounded=0;orthogonalLoop=1;jettySize=auto;html=1;entryX=0.5;entryY=0;entryDx=0;entryDy=0;" edge="1" parent="1" source="enKZw2bad4Le0Jf5cK5T-7" target="enKZw2bad4Le0Jf5cK5T-3">
          <mxGeometry relative="1" as="geometry">
            <Array as="points">
              <mxPoint x="-40" y="250" />
              <mxPoint x="20" y="250" />
            </Array>
          </mxGeometry>
        </mxCell>
        <mxCell id="enKZw2bad4Le0Jf5cK5T-7" value="finedb" style="shape=cylinder;whiteSpace=wrap;html=1;boundedLbl=1;backgroundOutline=1;" vertex="1" parent="1">
          <mxGeometry x="-70" y="120" width="60" height="80" as="geometry" />
        </mxCell>
        <mxCell id="enKZw2bad4Le0Jf5cK5T-24" style="edgeStyle=orthogonalEdgeStyle;rounded=0;orthogonalLoop=1;jettySize=auto;html=1;entryX=0.5;entryY=0;entryDx=0;entryDy=0;" edge="1" parent="1" source="enKZw2bad4Le0Jf5cK5T-16" target="enKZw2bad4Le0Jf5cK5T-2">
          <mxGeometry relative="1" as="geometry" />
        </mxCell>
        <mxCell id="enKZw2bad4Le0Jf5cK5T-16" value="devdb" style="shape=cylinder;whiteSpace=wrap;html=1;boundedLbl=1;backgroundOutline=1;" vertex="1" parent="1">
          <mxGeometry x="-170" y="120" width="60" height="80" as="geometry" />
        </mxCell>
        <mxCell id="enKZw2bad4Le0Jf5cK5T-19" style="edgeStyle=orthogonalEdgeStyle;rounded=0;orthogonalLoop=1;jettySize=auto;html=1;entryX=0.5;entryY=0;entryDx=0;entryDy=0;" edge="1" parent="1" source="enKZw2bad4Le0Jf5cK5T-18" target="enKZw2bad4Le0Jf5cK5T-3">
          <mxGeometry relative="1" as="geometry">
            <Array as="points">
              <mxPoint x="70" y="250" />
              <mxPoint x="20" y="250" />
            </Array>
          </mxGeometry>
        </mxCell>
        <mxCell id="enKZw2bad4Le0Jf5cK5T-18" value="devdb" style="shape=cylinder;whiteSpace=wrap;html=1;boundedLbl=1;backgroundOutline=1;" vertex="1" parent="1">
          <mxGeometry x="40" y="120" width="60" height="80" as="geometry" />
        </mxCell>
        <mxCell id="enKZw2bad4Le0Jf5cK5T-25" value="webroot&lt;br&gt;妮芙露" style="ellipse;whiteSpace=wrap;html=1;aspect=fixed;" vertex="1" parent="1">
          <mxGeometry x="190" y="300" width="80" height="80" as="geometry" />
        </mxCell>
        <mxCell id="enKZw2bad4Le0Jf5cK5T-26" style="edgeStyle=orthogonalEdgeStyle;rounded=0;orthogonalLoop=1;jettySize=auto;html=1;entryX=0.5;entryY=0;entryDx=0;entryDy=0;" edge="1" parent="1" source="enKZw2bad4Le0Jf5cK5T-27" target="enKZw2bad4Le0Jf5cK5T-25">
          <mxGeometry relative="1" as="geometry">
            <Array as="points">
              <mxPoint x="170" y="250" />
              <mxPoint x="230" y="250" />
            </Array>
          </mxGeometry>
        </mxCell>
        <mxCell id="enKZw2bad4Le0Jf5cK5T-27" value="finedb" style="shape=cylinder;whiteSpace=wrap;html=1;boundedLbl=1;backgroundOutline=1;" vertex="1" parent="1">
          <mxGeometry x="140" y="120" width="60" height="80" as="geometry" />
        </mxCell>
        <mxCell id="enKZw2bad4Le0Jf5cK5T-28" style="edgeStyle=orthogonalEdgeStyle;rounded=0;orthogonalLoop=1;jettySize=auto;html=1;entryX=0.5;entryY=0;entryDx=0;entryDy=0;" edge="1" parent="1" source="enKZw2bad4Le0Jf5cK5T-29" target="enKZw2bad4Le0Jf5cK5T-25">
          <mxGeometry relative="1" as="geometry">
            <Array as="points">
              <mxPoint x="280" y="250" />
              <mxPoint x="230" y="250" />
            </Array>
          </mxGeometry>
        </mxCell>
        <mxCell id="enKZw2bad4Le0Jf5cK5T-29" value="devdb" style="shape=cylinder;whiteSpace=wrap;html=1;boundedLbl=1;backgroundOutline=1;" vertex="1" parent="1">
          <mxGeometry x="250" y="120" width="60" height="80" as="geometry" />
        </mxCell>
        <mxCell id="enKZw2bad4Le0Jf5cK5T-30" value="webroot&lt;br&gt;台灣氣立" style="ellipse;whiteSpace=wrap;html=1;aspect=fixed;" vertex="1" parent="1">
          <mxGeometry x="400" y="300" width="80" height="80" as="geometry" />
        </mxCell>
        <mxCell id="enKZw2bad4Le0Jf5cK5T-31" style="edgeStyle=orthogonalEdgeStyle;rounded=0;orthogonalLoop=1;jettySize=auto;html=1;entryX=0.5;entryY=0;entryDx=0;entryDy=0;" edge="1" source="enKZw2bad4Le0Jf5cK5T-32" target="enKZw2bad4Le0Jf5cK5T-30" parent="1">
          <mxGeometry relative="1" as="geometry">
            <Array as="points">
              <mxPoint x="380" y="250" />
              <mxPoint x="440" y="250" />
            </Array>
          </mxGeometry>
        </mxCell>
        <mxCell id="enKZw2bad4Le0Jf5cK5T-32" value="finedb" style="shape=cylinder;whiteSpace=wrap;html=1;boundedLbl=1;backgroundOutline=1;" vertex="1" parent="1">
          <mxGeometry x="350" y="120" width="60" height="80" as="geometry" />
        </mxCell>
        <mxCell id="enKZw2bad4Le0Jf5cK5T-33" style="edgeStyle=orthogonalEdgeStyle;rounded=0;orthogonalLoop=1;jettySize=auto;html=1;entryX=0.5;entryY=0;entryDx=0;entryDy=0;" edge="1" source="enKZw2bad4Le0Jf5cK5T-34" target="enKZw2bad4Le0Jf5cK5T-30" parent="1">
          <mxGeometry relative="1" as="geometry">
            <Array as="points">
              <mxPoint x="490" y="250" />
              <mxPoint x="440" y="250" />
            </Array>
          </mxGeometry>
        </mxCell>
        <mxCell id="enKZw2bad4Le0Jf5cK5T-34" value="devdb" style="shape=cylinder;whiteSpace=wrap;html=1;boundedLbl=1;backgroundOutline=1;" vertex="1" parent="1">
          <mxGeometry x="460" y="120" width="60" height="80" as="geometry" />
        </mxCell>
      </root>
    </mxGraphModel>
  </diagram>
</mxfile>
